<?xml version="1.0" encoding="utf-8"?>
<svg version="1.1" id="Layer_1" xmlns="http://www.w3.org/2000/svg" xmlns:xlink="http://www.w3.org/1999/xlink" x="0px" y="0px"
	 viewBox="0 0 2589 684" style="enable-background:new 0 0 2589 684;" xml:space="preserve">
<style type="text/css">
	.st0{fill:#00B48D;}
	.st1{fill:#1D1D1B;}
	.st2{fill:#FFD003;}
	.st3{fill:#00A6DE;}
	.st4{fill:#FFFFFF;}
	.st5{fill:#D1D6DA;}
	.st6{fill:#FFD000;}
	.st7{fill:#FFD400;}
	.st8{fill:#73BF9B;}
</style>
<g>
	<polygon class="st0" points="2589.2,515.5 2589.2,565.1 2556.4,565.1 39.5,565.1 -0.2,565.1 -0.2,525.4 99,525.4 99,485.8 
		69.2,485.8 69.2,456 -0.2,456 -0.2,396.5 198.2,396.5 198.2,366.7 228,366.7 228,336.9 257.7,336.9 257.7,307.2 2420.5,307.2 
		2420.5,267.5 2450.3,267.5 2450.3,237.7 2480.1,237.7 2480.1,208 2509.9,208 2509.9,168.3 2589.2,168.3 2589.2,450.6 2559.5,450.6 
		2559.5,483.4 2559.5,515.5 	"/>
	<rect x="2559.5" y="475.8" class="st1" width="29.8" height="39.7"/>
	<rect x="2559.5" y="446.1" class="st1" width="29.8" height="29.8"/>
	<polygon class="st2" points="2569.5,565.1 2569.3,604.8 49.3,604.8 49.3,565.1 	"/>
	<rect x="2480.1" y="168.3" class="st1" width="29.8" height="39.7"/>
	<rect x="2450.3" y="208" class="st1" width="29.8" height="29.8"/>
	<polygon class="st3" points="2480.1,171.2 2480.1,208 2450.3,208 2450.3,237.7 2420.6,237.7 2420.6,267.5 2162.6,267.5 
		2162.6,118.7 2480.1,118.7 	"/>
	<rect x="2420.6" y="237.7" class="st1" width="29.8" height="29.8"/>
	<rect x="1696.3" y="118.7" class="st3" width="426.6" height="148.8"/>
	<rect x="1230" y="118.7" class="st3" width="426.6" height="148.8"/>
	<rect x="1190.3" y="118.7" class="st1" width="39.8" height="148.8"/>
	<polygon class="st3" points="1190.3,118.7 1190.3,268.1 763.7,267.5 763.7,118.7 	"/>
	<rect x="724" y="118.7" class="st1" width="39.8" height="148.8"/>
	<polygon class="st3" points="724,118.1 724,267.5 297.4,267.5 297.4,118.7 	"/>
	<path d="M39.5,79v39.7h218.3v148.8v39.7h2162.8v-39.7h-258V118.7l317.4,0l0,49.6h29.8h79.4l0-50.2h0v-6.6h0V78.7h-32.8L39.5,79z
		 M1696.3,267.5V118.7h426.6v148.8H1696.3z M297.4,118.7h436.4h29.9h426.6h39.7h426.6v148.8H1230h-39.7H763.7H734H297.4V118.7z"/>
	<polygon class="st3" points="257.7,267.5 257.7,307.2 228,307.2 228,336.9 198.2,336.9 198.2,376.6 168.4,376.6 168.4,118.7 
		257.7,118.7 	"/>
	<rect x="198.2" y="336.9" class="st1" width="29.8" height="29.8"/>
	<rect x="59.3" y="118.7" class="st3" width="69.4" height="248"/>
	<polygon class="st1" points="168.4,366.7 168.4,366.7 198.2,366.7 198.2,396.5 -0.2,396.5 -0.2,366.7 	"/>
	<g>
		<polygon class="st4" points="545.5,39.3 545.5,-0.4 79.2,-0.4 79.2,39.3 39.5,39.3 39.5,79 2559.6,78.7 2559.6,39.3 		"/>
		<rect x="-0.2" y="79" class="st5" width="39.7" height="39.7"/>
	</g>
	<polygon class="st5" points="-0.2,485.7 -0.2,456 69.2,456 69.2,485.8 99,485.8 99,525.4 -0.2,525.4 	"/>
	<rect x="-0.2" y="118.7" class="st3" width="19.8" height="248"/>
	<g>
		<rect x="79.2" y="257.6" class="st2" width="49.6" height="49.6"/>
	</g>
	<polygon points="168.4,118.7 168.4,376.6 128.8,366.7 128.8,118.7 	"/>
	<polygon class="st1" points="59.3,118.7 59.3,366.7 39.6,366.7 19.6,366.7 19.6,118.7 46.2,118.7 	"/>
	<rect x="29.6" y="198" class="st6" width="29.8" height="99.2"/>
	<g>
		<rect x="2380.9" y="571" class="st7" width="23.1" height="32.8"/>
		<g>
			<rect x="2341.2" y="565.1" class="st1" width="39.7" height="39.7"/>
			<path class="st2" d="M2291.6,565.1v39.7h19.8v29.8h29.8v19.8h39.7v-19.8h29.8v-29.8h19.8v-39.7h-19.8v-29.8h-29.8v-19.8h-39.7
				v19.8h-29.8v29.8H2291.6z M2341.2,565.1h39.7v39.7h-39.7V565.1"/>
			<path class="st1" d="M2261.8,535.4v99.2h29.8v19.8h19.8v29.8h99.2v-29.8h19.8v-19.8h29.8v-99.2h-29.8v-19.8h-19.8v-29.8h-99.2
				v29.8h-19.8v19.8H2261.8z M2291.6,565.1h19.8v-29.8h29.8v-19.8h39.7v19.8h29.8v29.8h19.8v39.7h-19.8v29.8h-29.8v19.8h-39.7v-19.8
				h-29.8v-29.8h-19.8V565.1z"/>
		</g>
	</g>
	<g>
		<rect x="2083.3" y="565.1" class="st1" width="39.7" height="39.7"/>
		<path class="st2" d="M2033.6,565.1v39.7h19.8v29.8h29.8v19.8h39.7v-19.8h29.8v-29.8h19.8v-39.7h-19.8v-29.8h-29.8v-19.8h-39.7
			v19.8h-29.8v29.8H2033.6z M2083.3,565.1h39.7v39.7h-39.7V565.1"/>
		<path class="st1" d="M2003.9,535.4v99.2h29.8v19.8h19.8v29.8h99.2v-29.8h19.8v-19.8h29.8v-99.2h-29.8v-19.8h-19.8v-29.8h-99.2
			v29.8h-19.8v19.8H2003.9z M2033.6,565.1h19.8v-29.8h29.8v-19.8h39.7v19.8h29.8v29.8h19.8v39.7h-19.8v29.8h-29.8v19.8h-39.7v-19.8
			h-29.8v-29.8h-19.8V565.1z"/>
	</g>
	<g>
		<rect x="357" y="565.1" class="st1" width="39.7" height="39.7"/>
		<path class="st2" d="M307.3,565.1v39.7h19.8v29.8H357v19.8h39.7v-19.8h29.8v-29.8h19.8v-39.7h-19.8v-29.8h-29.8v-19.8H357v19.8
			h-29.8v29.8H307.3z M357,565.1h39.7v39.7H357V565.1"/>
		<path class="st1" d="M277.6,535.4v99.2h29.8v19.8h19.8v29.8h99.2v-29.8h19.8v-19.8H476v-99.2h-29.8v-19.8h-19.8v-29.8h-99.2v29.8
			h-19.8v19.8H277.6z M307.3,565.1h19.8v-29.8H357v-19.8h39.7v19.8h29.8v29.8h19.8v39.7h-19.8v29.8h-29.8v19.8H357v-19.8h-29.8
			v-29.8h-19.8V565.1z"/>
	</g>
	<rect x="1911" y="434" class="st1" width="12" height="12"/>
	<path class="st8" d="M257.7,297.3"/>
	<rect x="227.9" y="307.2" class="st1" width="29.8" height="29.8"/>
</g>
<g>
	<g>
		<path d="M288.4,385.4h12.1v12.1h-12.1V385.4z M304.6,369.3h12.1v12.1h-12.1V369.3z M304.6,401.6h12.1v12.1h-12.1V401.6z
			 M320.7,353.1h12.1v12.1h-12.1V353.1z M320.7,417.8h12.1v12.1h-12.1V417.8z"/>
		<path d="M353.1,336.9h12.1v12.1h-12.1V336.9z M353.1,353.1h12.1v12.1h-12.1V353.1z M353.1,369.3h12.1v12.1h-12.1V369.3z
			 M353.1,385.4h12.1v12.1h-12.1V385.4z M353.1,401.6h12.1v12.1h-12.1V401.6z M353.1,417.8h12.1v12.1h-12.1V417.8z M353.1,433.9
			h12.1v12.1h-12.1V433.9z M369.3,369.3h12.1v12.1h-12.1V369.3z M385.4,369.3h12.1v12.1h-12.1V369.3z M401.6,385.4h12.1v12.1h-12.1
			V385.4z M401.6,401.6h12.1v12.1h-12.1V401.6z M401.6,417.8h12.1v12.1h-12.1V417.8z M401.6,433.9h12.1v12.1h-12.1V433.9z"/>
		<path d="M433.9,345H446v12.1h-12.1V345z M433.9,401.6H446v12.1h-12.1V401.6z M433.9,417.8H446v12.1h-12.1V417.8z M433.9,433.9H446
			v12.1h-12.1V433.9z M450.1,336.9h12.1v12.1h-12.1V336.9z M450.1,385.4h12.1v12.1h-12.1V385.4z M450.1,433.9h12.1v12.1h-12.1V433.9
			z M466.3,336.9h12.1v12.1h-12.1V336.9z M466.3,385.4h12.1v12.1h-12.1V385.4z M466.3,433.9h12.1v12.1h-12.1V433.9z M482.4,336.9
			h12.1v12.1h-12.1V336.9z M482.4,385.4h12.1v12.1h-12.1V385.4z M482.4,433.9h12.1v12.1h-12.1V433.9z M498.6,345h12.1v12.1h-12.1
			V345z M498.6,361.2h12.1v12.1h-12.1V361.2z M498.6,377.4h12.1v12.1h-12.1V377.4z M498.6,433.9h12.1v12.1h-12.1V433.9z"/>
		<path d="M530.9,353.1h12.1v12.1h-12.1V353.1z M530.9,417.8h12.1v12.1h-12.1V417.8z M547.1,369.3h12.1v12.1h-12.1V369.3z
			 M547.1,401.6h12.1v12.1h-12.1V401.6z M563.3,385.4h12.1v12.1h-12.1V385.4z"/>
	</g>
	<g>
		<path d="M653.1,345h12.1v12.1h-12.1V345z M653.1,361.2h12.1v12.1h-12.1V361.2z M653.1,377.4h12.1v12.1h-12.1V377.4z M653.1,393.6
			h12.1v12.1h-12.1V393.6z M653.1,409.8h12.1V422h-12.1V409.8z M653.1,426h12.1v12.1h-12.1V426z M669.3,336.9h12.1v12.1h-12.1V336.9
			z M669.3,434.1h12.1v12.1h-12.1V434.1z M685.5,336.9h12.1v12.1h-12.1V336.9z M685.5,434.1h12.1v12.1h-12.1V434.1z M701.7,336.9
			h12.1v12.1h-12.1V336.9z M701.7,434.1h12.1v12.1h-12.1V434.1z M717.9,345H730v12.1h-12.1V345z M717.9,361.2H730v12.1h-12.1V361.2z
			 M717.9,377.4H730v12.1h-12.1V377.4z M717.9,393.6H730v12.1h-12.1V393.6z M717.9,409.8H730V422h-12.1V409.8z M717.9,426H730v12.1
			h-12.1V426z"/>
		<path d="M750.3,369.3h12.1v12.1h-12.1V369.3z M750.3,385.5h12.1v12.1h-12.1V385.5z M750.3,401.7h12.1v12.1h-12.1V401.7z
			 M750.3,417.9h12.1v12.1h-12.1V417.9z M750.3,434.1h12.1v12.1h-12.1V434.1z M750.3,450.3h12.1v12.1h-12.1V450.3z M750.3,466.5
			h12.1v12.1h-12.1V466.5z M766.5,369.3h12.1v12.1h-12.1V369.3z M766.5,434.1h12.1v12.1h-12.1V434.1z M782.7,369.3h12.1v12.1h-12.1
			V369.3z M782.7,434.1h12.1v12.1h-12.1V434.1z M798.9,377.4H811v12.1h-12.1V377.4z M798.9,393.6H811v12.1h-12.1V393.6z
			 M798.9,409.8H811V422h-12.1V409.8z M798.9,426H811v12.1h-12.1V426z"/>
		<path d="M831.2,377.4h12.1v12.1h-12.1V377.4z M831.2,393.6h12.1v12.1h-12.1V393.6z M831.2,409.8h12.1V422h-12.1V409.8z M831.2,426
			h12.1v12.1h-12.1V426z M847.4,369.3h12.1v12.1h-12.1V369.3z M847.4,401.7h12.1v12.1h-12.1V401.7z M847.4,434.1h12.1v12.1h-12.1
			V434.1z M863.6,369.3h12.1v12.1h-12.1V369.3z M863.6,401.7h12.1v12.1h-12.1V401.7z M863.6,434.1h12.1v12.1h-12.1V434.1z
			 M879.8,377.4H892v12.1h-12.1V377.4z M879.8,393.6H892v12.1h-12.1V393.6z M879.8,426H892v12.1h-12.1V426z"/>
		<path d="M912.2,369.3h12.1v12.1h-12.1V369.3z M912.2,385.5h12.1v12.1h-12.1V385.5z M912.2,401.7h12.1v12.1h-12.1V401.7z
			 M912.2,417.9h12.1v12.1h-12.1V417.9z M912.2,434.1h12.1v12.1h-12.1V434.1z M928.4,377.4h12.1v12.1h-12.1V377.4z M944.6,369.3
			h12.1v12.1h-12.1V369.3z M960.8,385.5H973v12.1h-12.1V385.5z M960.8,401.7H973v12.1h-12.1V401.7z M960.8,417.9H973v12.1h-12.1
			V417.9z M960.8,434.1H973v12.1h-12.1V434.1z"/>
	</g>
	<g>
		<path d="M1070.4,336.9h12.1v12.1h-12.1V336.9z M1070.4,353.1h12.1v12.1h-12.1V353.1z M1070.4,369.3h12.1v12.1h-12.1V369.3z
			 M1070.4,385.4h12.1v12.1h-12.1V385.4z M1070.4,401.6h12.1v12.1h-12.1V401.6z M1070.4,417.8h12.1v12.1h-12.1V417.8z M1070.4,433.9
			h12.1v12.1h-12.1V433.9z M1086.5,336.9h12.1v12.1h-12.1V336.9z M1086.5,433.9h12.1v12.1h-12.1V433.9z M1102.7,336.9h12.1v12.1
			h-12.1V336.9z M1102.7,433.9h12.1v12.1h-12.1V433.9z M1118.9,336.9h12.1v12.1h-12.1V336.9z M1118.9,433.9h12.1v12.1h-12.1V433.9z
			 M1135,345h12.1v12.1H1135V345z M1135,361.2h12.1v12.1H1135V361.2z M1135,377.4h12.1v12.1H1135V377.4z M1135,393.5h12.1v12.1H1135
			V393.5z M1135,409.7h12.1v12.1H1135V409.7z M1135,425.9h12.1V438H1135V425.9z"/>
		<path d="M1167.4,377.4h12.1v12.1h-12.1V377.4z M1167.4,409.7h12.1v12.1h-12.1V409.7z M1167.4,425.9h12.1V438h-12.1V425.9z
			 M1183.5,369.3h12.1v12.1h-12.1V369.3z M1183.5,401.6h12.1v12.1h-12.1V401.6z M1183.5,433.9h12.1v12.1h-12.1V433.9z M1199.7,369.3
			h12.1v12.1h-12.1V369.3z M1199.7,401.6h12.1v12.1h-12.1V401.6z M1199.7,433.9h12.1v12.1h-12.1V433.9z M1215.9,377.4h12.1v12.1
			h-12.1V377.4z M1215.9,393.5h12.1v12.1h-12.1V393.5z M1215.9,409.7h12.1v12.1h-12.1V409.7z M1215.9,425.9h12.1V438h-12.1V425.9z"
			/>
		<path d="M1248.2,369.3h12.1v12.1h-12.1V369.3z M1264.4,336.9h12.1v12.1h-12.1V336.9z M1264.4,353.1h12.1v12.1h-12.1V353.1z
			 M1264.4,369.3h12.1v12.1h-12.1V369.3z M1264.4,385.4h12.1v12.1h-12.1V385.4z M1264.4,401.6h12.1v12.1h-12.1V401.6z M1264.4,417.8
			h12.1v12.1h-12.1V417.8z M1280.5,369.3h12.1v12.1h-12.1V369.3z M1280.5,433.9h12.1v12.1h-12.1V433.9z M1296.7,425.9h12.1V438
			h-12.1V425.9z"/>
		<path d="M1329,377.4h12.1v12.1H1329V377.4z M1329,409.7h12.1v12.1H1329V409.7z M1329,425.9h12.1V438H1329V425.9z M1345.2,369.3
			h12.1v12.1h-12.1V369.3z M1345.2,401.6h12.1v12.1h-12.1V401.6z M1345.2,433.9h12.1v12.1h-12.1V433.9z M1361.4,369.3h12.1v12.1
			h-12.1V369.3z M1361.4,401.6h12.1v12.1h-12.1V401.6z M1361.4,433.9h12.1v12.1h-12.1V433.9z M1377.5,377.4h12.1v12.1h-12.1V377.4z
			 M1377.5,393.5h12.1v12.1h-12.1V393.5z M1377.5,409.7h12.1v12.1h-12.1V409.7z M1377.5,425.9h12.1V438h-12.1V425.9z"/>
	</g>
	<g>
		<path d="M1473.3,336.9h12.1v12.1h-12.1V336.9z M1473.3,353.1h12.1v12.1h-12.1V353.1z M1473.3,369.3h12.1v12.1h-12.1V369.3z
			 M1473.3,385.5h12.1v12.1h-12.1V385.5z M1473.3,401.7h12.1v12.1h-12.1V401.7z M1473.3,417.9h12.1v12.1h-12.1V417.9z M1473.3,434.1
			h12.1v12.1h-12.1V434.1z M1489.5,369.3h12.1v12.1h-12.1V369.3z M1489.5,434.1h12.1v12.1h-12.1V434.1z M1505.7,369.3h12.1v12.1
			h-12.1V369.3z M1505.7,434.1h12.1v12.1h-12.1V434.1z M1521.9,377.4h12.1v12.1h-12.1V377.4z M1521.9,393.6h12.1v12.1h-12.1V393.6z
			 M1521.9,409.8h12.1V422h-12.1V409.8z M1521.9,426h12.1v12.1h-12.1V426z"/>
		<path d="M1554.3,377.4h12.1v12.1h-12.1V377.4z M1554.3,393.6h12.1v12.1h-12.1V393.6z M1554.3,409.8h12.1V422h-12.1V409.8z
			 M1554.3,426h12.1v12.1h-12.1V426z M1570.5,369.3h12.1v12.1h-12.1V369.3z M1570.5,401.7h12.1v12.1h-12.1V401.7z M1570.5,434.1
			h12.1v12.1h-12.1V434.1z M1586.7,369.3h12.1v12.1h-12.1V369.3z M1586.7,401.7h12.1v12.1h-12.1V401.7z M1586.7,434.1h12.1v12.1
			h-12.1V434.1z M1602.9,377.4h12.1v12.1h-12.1V377.4z M1602.9,393.6h12.1v12.1h-12.1V393.6z M1602.9,426h12.1v12.1h-12.1V426z"/>
		<path d="M1635.3,369.3h12.1v12.1h-12.1V369.3z M1635.3,385.5h12.1v12.1h-12.1V385.5z M1635.3,401.7h12.1v12.1h-12.1V401.7z
			 M1635.3,417.9h12.1v12.1h-12.1V417.9z M1651.5,434.1h12.1v12.1h-12.1V434.1z M1667.7,393.6h12.1v12.1h-12.1V393.6z M1667.7,409.8
			h12.1V422h-12.1V409.8z M1667.7,426h12.1v12.1h-12.1V426z M1683.9,434.1h12.1v12.1h-12.1V434.1z M1700.1,369.3h12.1v12.1h-12.1
			V369.3z M1700.1,385.5h12.1v12.1h-12.1V385.5z M1700.1,401.7h12.1v12.1h-12.1V401.7z M1700.1,417.9h12.1v12.1h-12.1V417.9z"/>
		<path d="M1732.5,377.4h12.1v12.1h-12.1V377.4z M1732.5,393.6h12.1v12.1h-12.1V393.6z M1732.5,409.8h12.1V422h-12.1V409.8z
			 M1732.5,426h12.1v12.1h-12.1V426z M1748.7,369.3h12.1v12.1h-12.1V369.3z M1748.7,401.7h12.1v12.1h-12.1V401.7z M1748.7,434.1
			h12.1v12.1h-12.1V434.1z M1764.9,369.3h12.1v12.1h-12.1V369.3z M1764.9,401.7h12.1v12.1h-12.1V401.7z M1764.9,434.1h12.1v12.1
			h-12.1V434.1z M1781.1,377.4h12.1v12.1h-12.1V377.4z M1781.1,393.6h12.1v12.1h-12.1V393.6z M1781.1,426h12.1v12.1h-12.1V426z"/>
		<path d="M1813.5,377.4h12.1v12.1h-12.1V377.4z M1813.5,393.6h12.1v12.1h-12.1V393.6z M1813.5,409.8h12.1V422h-12.1V409.8z
			 M1813.5,426h12.1v12.1h-12.1V426z M1829.7,369.3h12.1v12.1h-12.1V369.3z M1829.7,434.1h12.1v12.1h-12.1V434.1z M1829.7,466.5
			h12.1v12.1h-12.1V466.5z M1845.8,369.3h12.1v12.1h-12.1V369.3z M1845.8,434.1h12.1v12.1h-12.1V434.1z M1845.8,466.5h12.1v12.1
			h-12.1V466.5z M1862,369.3h12.1v12.1H1862V369.3z M1862,385.5h12.1v12.1H1862V385.5z M1862,401.7h12.1v12.1H1862V401.7z
			 M1862,417.9h12.1v12.1H1862V417.9z M1862,434.1h12.1v12.1H1862V434.1z M1862,450.3h12.1v12.1H1862V450.3z"/>
		<path d="M1894.4,369.3h12.1v12.1h-12.1V369.3z M1910.6,336.9h12.1v12.1h-12.1V336.9z M1910.6,353.1h12.1v12.1h-12.1V353.1z
			 M1910.6,369.3h12.1v12.1h-12.1V369.3z M1910.6,385.5h12.1v12.1h-12.1V385.5z M1910.6,401.7h12.1v12.1h-12.1V401.7z M1910.6,417.9
			h12.1v12.1h-12.1V417.9z M1926.8,369.3h12.1v12.1h-12.1V369.3z M1926.8,434.1h12.1v12.1h-12.1V434.1z M1943,426h12.1v12.1H1943
			V426z"/>
	</g>
	<g>
		<path d="M2020.5,385.4h12.1v12.1h-12.1V385.4z M2036.7,369.3h12.1v12.1h-12.1V369.3z M2036.7,401.6h12.1v12.1h-12.1V401.6z
			 M2052.8,353.1h12.1v12.1h-12.1V353.1z M2052.8,417.8h12.1v12.1h-12.1V417.8z"/>
		<path d="M2085.2,433.9h12.1v12.1h-12.1V433.9z M2101.4,417.8h12.1v12.1h-12.1V417.8z M2117.5,401.6h12.1v12.1h-12.1V401.6z
			 M2133.7,385.4h12.1v12.1h-12.1V385.4z M2149.9,369.3h12.1v12.1h-12.1V369.3z M2166,353.1h12.1v12.1H2166V353.1z"/>
		<path d="M2198.4,336.9h12.1v12.1h-12.1V336.9z M2198.4,353.1h12.1v12.1h-12.1V353.1z M2198.4,369.3h12.1v12.1h-12.1V369.3z
			 M2198.4,385.4h12.1v12.1h-12.1V385.4z M2198.4,401.6h12.1v12.1h-12.1V401.6z M2198.4,417.8h12.1v12.1h-12.1V417.8z M2198.4,433.9
			h12.1v12.1h-12.1V433.9z M2214.5,369.3h12.1v12.1h-12.1V369.3z M2230.7,369.3h12.1v12.1h-12.1V369.3z M2246.9,385.4h12.1v12.1
			h-12.1V385.4z M2246.9,401.6h12.1v12.1h-12.1V401.6z M2246.9,417.8h12.1v12.1h-12.1V417.8z M2246.9,433.9h12.1v12.1h-12.1V433.9z"
			/>
		<path d="M2279.2,345h12.1v12.1h-12.1V345z M2279.2,401.6h12.1v12.1h-12.1V401.6z M2279.2,417.8h12.1v12.1h-12.1V417.8z
			 M2279.2,433.9h12.1v12.1h-12.1V433.9z M2295.4,336.9h12.1v12.1h-12.1V336.9z M2295.4,385.4h12.1v12.1h-12.1V385.4z M2295.4,433.9
			h12.1v12.1h-12.1V433.9z M2311.5,336.9h12.1v12.1h-12.1V336.9z M2311.5,385.4h12.1v12.1h-12.1V385.4z M2311.5,433.9h12.1v12.1
			h-12.1V433.9z M2327.7,336.9h12.1v12.1h-12.1V336.9z M2327.7,385.4h12.1v12.1h-12.1V385.4z M2327.7,433.9h12.1v12.1h-12.1V433.9z
			 M2343.9,345h12.1v12.1h-12.1V345z M2343.9,361.2h12.1v12.1h-12.1V361.2z M2343.9,377.4h12.1v12.1h-12.1V377.4z M2343.9,433.9
			h12.1v12.1h-12.1V433.9z"/>
		<path d="M2376.2,353.1h12.1v12.1h-12.1V353.1z M2376.2,417.8h12.1v12.1h-12.1V417.8z M2392.4,369.3h12.1v12.1h-12.1V369.3z
			 M2392.4,401.6h12.1v12.1h-12.1V401.6z M2408.5,385.4h12.1v12.1h-12.1V385.4z"/>
	</g>
</g>
</svg>
