<?xml version="1.0" encoding="utf-8"?>
<!-- Generator: Adobe Illustrator 23.0.6, SVG Export Plug-In . SVG Version: 6.00 Build 0)  -->
<svg version="1.1" id="Ebene_1" xmlns="http://www.w3.org/2000/svg" xmlns:xlink="http://www.w3.org/1999/xlink" x="0px" y="0px"
	 viewBox="0 0 511.04 91.02" style="enable-background:new 0 0 511.04 91.02;" xml:space="preserve">
<style type="text/css">
	.st0{fill:#00A6DE;}
	.st1{fill:#FFD003;}
	.st2{fill:#ACAFB2;}
	.st3{fill:#FFFFFF;}
	.st4{fill:#D1D6DA;}
</style>
<polygon class="st0" points="70.02,14 91.09,14 91.02,49.01 84.02,49.01 84.02,56.01 77.02,56.01 77.02,49.01 70.02,49.01 "/>
<polygon class="st1" points="231.05,14 252.06,14 252.06,28.01 245.06,28.01 245.06,35.01 217.05,35.01 217.05,28.01 224.05,28.01 
	224.05,21 231.05,21 "/>
<title>Zeichenfläche 1</title>
<g>
	<rect x="14" y="24.5" class="st1" width="49" height="7"/>
</g>
<rect x="70.02" y="42.01" width="7" height="7"/>
<rect x="14.01" y="17.5" width="49" height="7"/>
<rect x="14" y="31.51" width="49" height="7"/>
<rect x="77.02" y="49.01" width="7" height="7"/>
<rect x="84.02" y="42.01" width="7" height="7"/>
<rect x="91.02" y="14" width="7" height="28.01"/>
<rect x="63.02" y="14" width="7" height="28"/>
<rect x="7" y="24.5" width="7" height="7"/>
<rect x="70.02" y="7" width="21.08" height="7"/>
<rect x="231.05" y="7" width="21" height="7"/>
<rect x="252.06" y="14" width="42.01" height="7"/>
<rect x="294.07" y="21.01" width="7" height="7"/>
<polygon points="301.07,28.01 308.07,28.01 308.07,49.01 301.07,42.01 "/>
<polygon points="294.07,42.01 301.07,42.01 301.07,49.01 "/>
<polygon points="287.07,42.01 294.07,42.01 294.07,49.01 "/>
<polygon points="280.06,42.01 287.06,42.01 287.06,49.01 "/>
<polygon points="273.06,42.01 280.06,42.01 280.06,49.01 "/>
<polygon points="266.06,42.01 273.06,42.01 273.06,49.01 "/>
<polygon points="259.06,42.01 266.06,42.01 266.06,49.01 "/>
<polygon points="252.06,42.01 259.06,42.01 259.06,49.01 "/>
<polygon points="245.06,42.01 252.06,42.01 252.06,49.01 "/>
<rect x="203.05" y="35.01" width="42.01" height="7"/>
<rect x="245.06" y="28.01" width="7" height="14"/>
<rect x="224.05" y="14" width="7" height="7"/>
<rect x="217.05" y="21" width="7" height="7"/>
<rect x="210.05" y="28.01" width="7" height="7"/>
<rect x="231.2" y="28.15" width="4.23" height="4.23"/>
<rect x="252.06" y="14" width="7" height="14"/>
<polygon class="st2" points="259.06,21 294.07,21 294.07,28.01 301.07,28.01 301.07,35.01 252.06,35.01 252.06,28.01 259.06,28.01 
	"/>
<g>
	<path class="st3" d="M175.04,42.01v-7h-7V28h-7v-7h-7l0.12-7h-7.13v7h-7v7l-7,0.01v7h-7v7h-7v7h63.01v-7H175.04z M147.03,40.26v-7
		l6.99-0.01l0.01,7.01H147.03z"/>
	<rect x="112.03" y="42.01" width="7" height="7"/>
	<rect x="119.03" y="49.01" width="63.01" height="7"/>
	<rect x="182.04" y="42.01" width="7" height="7"/>
	<rect x="175.04" y="35.01" width="7" height="7"/>
	<rect x="168.04" y="28.01" width="7" height="7"/>
	<rect x="161.04" y="21" width="7" height="7"/>
	<rect x="154.04" y="14" width="7" height="7"/>
	<rect x="147.16" y="7" width="7" height="7"/>
	<rect x="140.03" y="14" width="7" height="7"/>
	<rect x="133.03" y="21" width="7" height="7"/>
	<rect x="126.03" y="28.01" width="7" height="7"/>
	<rect x="119.03" y="35.01" width="7" height="7"/>
	<rect x="147.03" y="26.26" width="7" height="7"/>
	<polygon points="161.03,40.26 161.03,33.26 154.03,33.26 154.03,40.26 147.03,40.26 147.03,33.26 140.03,33.26 140.03,40.26 
		135.66,40.26 135.66,43.76 165.42,43.76 165.42,40.26 	"/>
</g>
<rect x="252.06" y="35.01" class="st4" width="49.01" height="7"/>
<g>
	<path d="M7,73.86h1.84v1.84H7V73.86z M9.45,71.41h1.84v1.84H9.45V71.41z M9.45,76.3h1.84v1.84H9.45V76.3z M11.9,68.96h1.84v1.84
		H11.9V68.96z M11.9,78.75h1.84v1.84H11.9V78.75z"/>
	<path d="M16.79,72.63h1.84v1.84h-1.84V72.63z M16.79,75.08h1.84v1.84h-1.84V75.08z M16.79,77.53h1.84v1.84h-1.84V77.53z
		 M16.79,79.98h1.84v1.84h-1.84V79.98z M19.24,71.41h1.84v1.84h-1.84V71.41z M19.24,81.2h1.84v1.84h-1.84V81.2z M21.69,71.41h1.84
		v1.84h-1.84V71.41z M21.69,81.2h1.84v1.84h-1.84V81.2z M24.13,66.51h1.84v1.84h-1.84V66.51z M24.13,68.96h1.84v1.84h-1.84V68.96z
		 M24.13,71.41h1.84v1.84h-1.84V71.41z M24.13,73.86h1.84v1.84h-1.84V73.86z M24.13,76.3h1.84v1.84h-1.84V76.3z M24.13,78.75h1.84
		v1.84h-1.84V78.75z M24.13,81.2h1.84v1.84h-1.84V81.2z"/>
	<path d="M29.03,71.41h1.84v1.84h-1.84V71.41z M29.03,81.2h1.84v1.84h-1.84V81.2z M31.48,66.51h1.84v1.84h-1.84V66.51z M31.48,71.41
		h1.84v1.84h-1.84V71.41z M31.48,73.86h1.84v1.84h-1.84V73.86z M31.48,76.3h1.84v1.84h-1.84V76.3z M31.48,78.75h1.84v1.84h-1.84
		V78.75z M31.48,81.2h1.84v1.84h-1.84V81.2z M33.92,81.2h1.84v1.84h-1.84V81.2z"/>
	<path d="M38.82,71.41h1.84v1.84h-1.84V71.41z M38.82,73.86h1.84v1.84h-1.84V73.86z M38.82,76.3h1.84v1.84h-1.84V76.3z M40.04,78.75
		h1.84v1.84h-1.84V78.75z M42.49,81.2h1.84v1.84h-1.84V81.2z M44.94,78.75h1.84v1.84h-1.84V78.75z M46.16,71.41H48v1.84h-1.84V71.41
		z M46.16,73.86H48v1.84h-1.84V73.86z M46.16,76.3H48v1.84h-1.84V76.3z"/>
	<path d="M51.06,68.96h1.84v1.84h-1.84V68.96z M51.06,78.75h1.84v1.84h-1.84V78.75z M53.51,71.41h1.84v1.84h-1.84V71.41z
		 M53.51,76.3h1.84v1.84h-1.84V76.3z M55.95,73.86h1.84v1.84h-1.84V73.86z"/>
	<path d="M60.85,73.86h1.84v1.84h-1.84V73.86z M63.3,71.41h1.84v1.84H63.3V71.41z M63.3,76.3h1.84v1.84H63.3V76.3z M65.74,68.96
		h1.84v1.84h-1.84V68.96z M65.74,78.75h1.84v1.84h-1.84V78.75z"/>
	<path d="M70.64,81.2h1.84v1.84h-1.84V81.2z M73.09,78.75h1.84v1.84h-1.84V78.75z M75.53,76.3h1.84v1.84h-1.84V76.3z M77.98,73.86
		h1.84v1.84h-1.84V73.86z M80.43,71.41h1.84v1.84h-1.84V71.41z M82.88,68.96h1.84v1.84h-1.84V68.96z"/>
	<path d="M87.77,72.63h1.84v1.84h-1.84V72.63z M87.77,75.08h1.84v1.84h-1.84V75.08z M87.77,77.53h1.84v1.84h-1.84V77.53z
		 M87.77,79.98h1.84v1.84h-1.84V79.98z M90.22,71.41h1.84v1.84h-1.84V71.41z M90.22,81.2h1.84v1.84h-1.84V81.2z M92.67,71.41h1.84
		v1.84h-1.84V71.41z M92.67,81.2h1.84v1.84h-1.84V81.2z M95.11,66.51h1.84v1.84h-1.84V66.51z M95.11,68.96h1.84v1.84h-1.84V68.96z
		 M95.11,71.41h1.84v1.84h-1.84V71.41z M95.11,73.86h1.84v1.84h-1.84V73.86z M95.11,76.3h1.84v1.84h-1.84V76.3z M95.11,78.75h1.84
		v1.84h-1.84V78.75z M95.11,81.2h1.84v1.84h-1.84V81.2z"/>
	<path d="M100.01,71.41h1.84v1.84h-1.84V71.41z M100.01,81.2h1.84v1.84h-1.84V81.2z M102.46,66.51h1.84v1.84h-1.84V66.51z
		 M102.46,71.41h1.84v1.84h-1.84V71.41z M102.46,73.86h1.84v1.84h-1.84V73.86z M102.46,76.3h1.84v1.84h-1.84V76.3z M102.46,78.75
		h1.84v1.84h-1.84V78.75z M102.46,81.2h1.84v1.84h-1.84V81.2z M104.9,81.2h1.84v1.84h-1.84V81.2z"/>
	<path d="M109.8,71.41h1.84v1.84h-1.84V71.41z M109.8,73.86h1.84v1.84h-1.84V73.86z M109.8,76.3h1.84v1.84h-1.84V76.3z
		 M111.02,78.75h1.84v1.84h-1.84V78.75z M113.47,81.2h1.84v1.84h-1.84V81.2z M115.92,78.75h1.84v1.84h-1.84V78.75z M117.14,71.41
		h1.84v1.84h-1.84V71.41z M117.14,73.86h1.84v1.84h-1.84V73.86z M117.14,76.3h1.84v1.84h-1.84V76.3z"/>
	<path d="M122.04,68.96h1.84v1.84h-1.84V68.96z M122.04,78.75h1.84v1.84h-1.84V78.75z M124.48,71.41h1.84v1.84h-1.84V71.41z
		 M124.48,76.3h1.84v1.84h-1.84V76.3z M126.93,73.86h1.84v1.84h-1.84C126.93,75.7,126.93,73.86,126.93,73.86z"/>
	<path d="M131.83,73.86h1.84v1.84h-1.84V73.86z M134.27,71.41h1.84v1.84h-1.84V71.41z M134.27,76.3h1.84v1.84h-1.84V76.3z
		 M136.72,68.96h1.84v1.84h-1.84V68.96z M136.72,78.75h1.84v1.84h-1.84V78.75z"/>
	<path d="M141.62,72.63h1.84v1.84h-1.84V72.63z M141.62,75.08h1.84v1.84h-1.84V75.08z M141.62,77.53h1.84v1.84h-1.84V77.53z
		 M141.62,79.98h1.84v1.84h-1.84V79.98z M144.06,71.41h1.84v1.84h-1.84V71.41z M144.06,81.2h1.84v1.84h-1.84V81.2z M146.51,71.41
		h1.84v1.84h-1.84V71.41z M146.51,81.2h1.84v1.84h-1.84V81.2z M148.96,66.51h1.84v1.84h-1.84V66.51z M148.96,68.96h1.84v1.84h-1.84
		V68.96z M148.96,71.41h1.84v1.84h-1.84V71.41z M148.96,73.86h1.84v1.84h-1.84V73.86z M148.96,76.3h1.84v1.84h-1.84V76.3z
		 M148.96,78.75h1.84v1.84h-1.84V78.75z M148.96,81.2h1.84v1.84h-1.84V81.2z"/>
	<path d="M153.86,71.41h1.84v1.84h-1.84V71.41z M153.86,81.2h1.84v1.84h-1.84V81.2z M156.3,66.51h1.84v1.84h-1.84V66.51z
		 M156.3,71.41h1.84v1.84h-1.84V71.41z M156.3,73.86h1.84v1.84h-1.84V73.86z M156.3,76.3h1.84v1.84h-1.84V76.3z M156.3,78.75h1.84
		v1.84h-1.84V78.75z M156.3,81.2h1.84v1.84h-1.84V81.2z M158.75,81.2h1.84v1.84h-1.84V81.2z"/>
	<path d="M163.64,71.41h1.84v1.84h-1.84V71.41z M163.64,73.86h1.84v1.84h-1.84V73.86z M163.64,76.3h1.84v1.84h-1.84V76.3z
		 M164.87,78.75h1.84v1.84h-1.84V78.75z M167.32,81.2h1.84v1.84h-1.84V81.2z M169.76,78.75h1.84v1.84h-1.84V78.75z M170.99,71.41
		h1.84v1.84h-1.84V71.41z M170.99,73.86h1.84v1.84h-1.84V73.86z M170.99,76.3h1.84v1.84h-1.84V76.3z"/>
	<path d="M175.88,68.96h1.84v1.84h-1.84V68.96z M175.88,78.75h1.84v1.84h-1.84V78.75z M178.33,71.41h1.84v1.84h-1.84V71.41z
		 M178.33,76.3h1.84v1.84h-1.84V76.3z M180.78,73.86h1.84v1.84h-1.84V73.86z"/>
	<path d="M185.67,73.86h1.84v1.84h-1.84V73.86z M188.12,71.41h1.84v1.84h-1.84V71.41z M188.12,76.3h1.84v1.84h-1.84V76.3z
		 M190.57,68.96h1.84v1.84h-1.84V68.96z M190.57,78.75h1.84v1.84h-1.84V78.75z"/>
	<path d="M195.46,81.2h1.84v1.84h-1.84V81.2z M197.91,78.75h1.84v1.84h-1.84V78.75z M200.36,76.3h1.84v1.84h-1.84V76.3z
		 M202.81,73.86h1.84v1.84h-1.84V73.86z M205.25,71.41h1.84v1.84h-1.84V71.41z M207.7,68.96h1.84v1.84h-1.84V68.96z"/>
	<path d="M212.6,72.63h1.84v1.84h-1.84V72.63z M212.6,75.08h1.84v1.84h-1.84V75.08z M212.6,77.53h1.84v1.84h-1.84V77.53z
		 M212.6,79.98h1.84v1.84h-1.84V79.98z M215.04,71.41h1.84v1.84h-1.84V71.41z M215.04,81.2h1.84v1.84h-1.84V81.2z M217.49,71.41
		h1.84v1.84h-1.84V71.41z M217.49,81.2h1.84v1.84h-1.84V81.2z M219.94,66.51h1.84v1.84h-1.84V66.51z M219.94,68.96h1.84v1.84h-1.84
		V68.96z M219.94,71.41h1.84v1.84h-1.84V71.41z M219.94,73.86h1.84v1.84h-1.84V73.86z M219.94,76.3h1.84v1.84h-1.84V76.3z
		 M219.94,78.75h1.84v1.84h-1.84V78.75z M219.94,81.2h1.84v1.84h-1.84V81.2z"/>
	<path d="M224.83,71.41h1.84v1.84h-1.84V71.41z M224.83,81.2h1.84v1.84h-1.84V81.2z M227.28,66.51h1.84v1.84h-1.84V66.51z
		 M227.28,71.41h1.84v1.84h-1.84V71.41z M227.28,73.86h1.84v1.84h-1.84V73.86z M227.28,76.3h1.84v1.84h-1.84V76.3z M227.28,78.75
		h1.84v1.84h-1.84V78.75z M227.28,81.2h1.84v1.84h-1.84V81.2z M229.73,81.2h1.84v1.84h-1.84V81.2z"/>
	<path d="M234.62,71.41h1.84v1.84h-1.84V71.41z M234.62,73.86h1.84v1.84h-1.84V73.86z M234.62,76.3h1.84v1.84h-1.84V76.3z
		 M235.85,78.75h1.84v1.84h-1.84V78.75z M238.29,81.2h1.84v1.84h-1.84V81.2z M240.74,78.75h1.84v1.84h-1.84V78.75z M241.97,71.41
		h1.84v1.84h-1.84V71.41z M241.97,73.86h1.84v1.84h-1.84V73.86z M241.97,76.3h1.84v1.84h-1.84V76.3z"/>
	<path d="M246.86,68.96h1.84v1.84h-1.84V68.96z M246.86,78.75h1.84v1.84h-1.84V78.75z M249.31,71.41h1.84v1.84h-1.84V71.41z
		 M249.31,76.3h1.84v1.84h-1.84V76.3z M251.76,73.86h1.84v1.84h-1.84V73.86z"/>
	<path d="M256.65,73.86h1.84v1.84h-1.84V73.86z M259.1,71.41h1.84v1.84h-1.84V71.41z M259.1,76.3h1.84v1.84h-1.84V76.3z
		 M261.55,68.96h1.84v1.84h-1.84V68.96z M261.55,78.75h1.84v1.84h-1.84V78.75z"/>
	<path d="M266.44,72.63h1.84v1.84h-1.84V72.63z M266.44,75.08h1.84v1.84h-1.84V75.08z M266.44,77.53h1.84v1.84h-1.84V77.53z
		 M266.44,79.98h1.84v1.84h-1.84V79.98z M268.89,71.41h1.84v1.84h-1.84V71.41z M268.89,81.2h1.84v1.84h-1.84V81.2z M271.34,71.41
		h1.84v1.84h-1.84V71.41z M271.34,81.2h1.84v1.84h-1.84V81.2z M273.78,66.51h1.84v1.84h-1.84V66.51z M273.78,68.96h1.84v1.84h-1.84
		V68.96z M273.78,71.41h1.84v1.84h-1.84V71.41z M273.78,73.86h1.84v1.84h-1.84V73.86z M273.78,76.3h1.84v1.84h-1.84V76.3z
		 M273.78,78.75h1.84v1.84h-1.84V78.75z M273.78,81.2h1.84v1.84h-1.84V81.2z"/>
	<path d="M278.68,71.41h1.84v1.84h-1.84V71.41z M278.68,81.2h1.84v1.84h-1.84V81.2z M281.13,66.51h1.84v1.84h-1.84V66.51z
		 M281.13,71.41h1.84v1.84h-1.84V71.41z M281.13,73.86h1.84v1.84h-1.84V73.86z M281.13,76.3h1.84v1.84h-1.84V76.3z M281.13,78.75
		h1.84v1.84h-1.84V78.75z M281.13,81.2h1.84v1.84h-1.84V81.2z M283.57,81.2h1.84v1.84h-1.84V81.2z"/>
	<path d="M288.47,71.41h1.84v1.84h-1.84V71.41z M288.47,73.86h1.84v1.84h-1.84V73.86z M288.47,76.3h1.84v1.84h-1.84V76.3z
		 M289.69,78.75h1.84v1.84h-1.84V78.75z M292.14,81.2h1.84v1.84h-1.84V81.2z M294.59,78.75h1.84v1.84h-1.84V78.75z M295.81,71.41
		h1.84v1.84h-1.84V71.41z M295.81,73.86h1.84v1.84h-1.84V73.86z M295.81,76.3h1.84v1.84h-1.84V76.3z"/>
	<path d="M300.71,68.96h1.84v1.84h-1.84V68.96z M300.71,78.75h1.84v1.84h-1.84V78.75z M303.15,71.41h1.84v1.84h-1.84V71.41z
		 M303.15,76.3h1.84v1.84h-1.84V76.3z M305.6,73.86h1.84v1.84h-1.84V73.86z"/>
	<path d="M310.5,73.86h1.84v1.84h-1.84V73.86z M312.94,71.41h1.84v1.84h-1.84V71.41z M312.94,76.3h1.84v1.84h-1.84V76.3z
		 M315.39,68.96h1.84v1.84h-1.84V68.96z M315.39,78.75h1.84v1.84h-1.84V78.75z"/>
	<path d="M320.29,81.2h1.84v1.84h-1.84V81.2z M322.73,78.75h1.84v1.84h-1.84V78.75z M325.18,76.3h1.84v1.84h-1.84V76.3z
		 M327.63,73.86h1.84v1.84h-1.84V73.86z M330.08,71.41h1.84v1.84h-1.84V71.41z M332.52,68.96h1.84v1.84h-1.84V68.96z"/>
	<path d="M337.42,72.63h1.84v1.84h-1.84V72.63z M337.42,75.08h1.84v1.84h-1.84V75.08z M337.42,77.53h1.84v1.84h-1.84V77.53z
		 M337.42,79.98h1.84v1.84h-1.84V79.98z M339.87,71.41h1.84v1.84h-1.84V71.41z M339.87,81.2h1.84v1.84h-1.84V81.2z M342.31,71.41
		h1.84v1.84h-1.84V71.41z M342.31,81.2h1.84v1.84h-1.84V81.2z M344.76,66.51h1.84v1.84h-1.84V66.51z M344.76,68.96h1.84v1.84h-1.84
		V68.96z M344.76,71.41h1.84v1.84h-1.84V71.41z M344.76,73.86h1.84v1.84h-1.84V73.86z M344.76,76.3h1.84v1.84h-1.84V76.3z
		 M344.76,78.75h1.84v1.84h-1.84V78.75z M344.76,81.2h1.84v1.84h-1.84V81.2z"/>
	<path d="M349.66,71.41h1.84v1.84h-1.84V71.41z M349.66,81.2h1.84v1.84h-1.84V81.2z M352.1,66.51h1.84v1.84h-1.84V66.51z
		 M352.1,71.41h1.84v1.84h-1.84V71.41z M352.1,73.86h1.84v1.84h-1.84V73.86z M352.1,76.3h1.84v1.84h-1.84V76.3z M352.1,78.75h1.84
		v1.84h-1.84V78.75z M352.1,81.2h1.84v1.84h-1.84V81.2z M354.55,81.2h1.84v1.84h-1.84V81.2z"/>
	<path d="M359.45,71.41h1.84v1.84h-1.84V71.41z M359.45,73.86h1.84v1.84h-1.84V73.86z M359.45,76.3h1.84v1.84h-1.84V76.3z
		 M360.67,78.75h1.84v1.84h-1.84V78.75z M363.12,81.2h1.84v1.84h-1.84V81.2z M365.56,78.75h1.84v1.84h-1.84V78.75z M366.79,71.41
		h1.84v1.84h-1.84V71.41z M366.79,73.86h1.84v1.84h-1.84V73.86z M366.79,76.3h1.84v1.84h-1.84V76.3z"/>
	<path d="M371.68,68.96h1.84v1.84h-1.84V68.96z M371.68,78.75h1.84v1.84h-1.84V78.75z M374.13,71.41h1.84v1.84h-1.84V71.41z
		 M374.13,76.3h1.84v1.84h-1.84V76.3z M376.58,73.86h1.84v1.84h-1.84V73.86z"/>
	<path d="M381.47,73.86h1.84v1.84h-1.84V73.86z M383.92,71.41h1.84v1.84h-1.84V71.41z M383.92,76.3h1.84v1.84h-1.84V76.3z
		 M386.37,68.96h1.84v1.84h-1.84V68.96z M386.37,78.75h1.84v1.84h-1.84V78.75z"/>
	<path d="M391.26,72.63h1.84v1.84h-1.84V72.63z M391.26,75.08h1.84v1.84h-1.84V75.08z M391.26,77.53h1.84v1.84h-1.84V77.53z
		 M391.26,79.98h1.84v1.84h-1.84V79.98z M393.71,71.41h1.84v1.84h-1.84V71.41z M393.71,81.2h1.84v1.84h-1.84V81.2z M396.16,71.41
		H398v1.84h-1.84V71.41z M396.16,81.2H398v1.84h-1.84V81.2z M398.61,66.51h1.84v1.84h-1.84V66.51z M398.61,68.96h1.84v1.84h-1.84
		V68.96z M398.61,71.41h1.84v1.84h-1.84V71.41z M398.61,73.86h1.84v1.84h-1.84V73.86z M398.61,76.3h1.84v1.84h-1.84V76.3z
		 M398.61,78.75h1.84v1.84h-1.84V78.75z M398.61,81.2h1.84v1.84h-1.84V81.2z"/>
	<path d="M403.5,71.41h1.84v1.84h-1.84V71.41z M403.5,81.2h1.84v1.84h-1.84V81.2z M405.95,66.51h1.84v1.84h-1.84V66.51z
		 M405.95,71.41h1.84v1.84h-1.84V71.41z M405.95,73.86h1.84v1.84h-1.84V73.86z M405.95,76.3h1.84v1.84h-1.84V76.3z M405.95,78.75
		h1.84v1.84h-1.84V78.75z M405.95,81.2h1.84v1.84h-1.84V81.2z M408.4,81.2h1.84v1.84h-1.84V81.2z"/>
	<path d="M413.29,71.41h1.84v1.84h-1.84V71.41z M413.29,73.86h1.84v1.84h-1.84V73.86z M413.29,76.3h1.84v1.84h-1.84V76.3z
		 M414.52,78.75h1.84v1.84h-1.84V78.75z M416.96,81.2h1.84v1.84h-1.84V81.2z M419.41,78.75h1.84v1.84h-1.84V78.75z M420.63,71.41
		h1.84v1.84h-1.84V71.41z M420.63,73.86h1.84v1.84h-1.84V73.86z M420.63,76.3h1.84v1.84h-1.84V76.3z"/>
	<path d="M425.53,68.96h1.84v1.84h-1.84V68.96z M425.53,78.75h1.84v1.84h-1.84V78.75z M427.98,71.41h1.84v1.84h-1.84V71.41z
		 M427.98,76.3h1.84v1.84h-1.84V76.3z M430.42,73.86h1.84v1.84h-1.84V73.86z"/>
	<path d="M435.32,73.86h1.84v1.84h-1.84V73.86z M437.77,71.41h1.84v1.84h-1.84V71.41z M437.77,76.3h1.84v1.84h-1.84V76.3z
		 M440.21,68.96h1.84v1.84h-1.84V68.96z M440.21,78.75h1.84v1.84h-1.84V78.75z"/>
	<path d="M445.11,81.2h1.84v1.84h-1.84V81.2z M447.56,78.75h1.84v1.84h-1.84V78.75z M450,76.3h1.84v1.84H450V76.3z M452.45,73.86
		h1.84v1.84h-1.84V73.86z M454.9,71.41h1.84v1.84h-1.84V71.41z M457.35,68.96h1.84v1.84h-1.84V68.96z"/>
	<path d="M462.24,72.63h1.84v1.84h-1.84V72.63z M462.24,75.08h1.84v1.84h-1.84V75.08z M462.24,77.53h1.84v1.84h-1.84V77.53z
		 M462.24,79.98h1.84v1.84h-1.84V79.98z M464.69,71.41h1.84v1.84h-1.84V71.41z M464.69,81.2h1.84v1.84h-1.84V81.2z M467.14,71.41
		h1.84v1.84h-1.84V71.41z M467.14,81.2h1.84v1.84h-1.84V81.2z M469.58,66.51h1.84v1.84h-1.84V66.51z M469.58,68.96h1.84v1.84h-1.84
		V68.96z M469.58,71.41h1.84v1.84h-1.84V71.41z M469.58,73.86h1.84v1.84h-1.84V73.86z M469.58,76.3h1.84v1.84h-1.84V76.3z
		 M469.58,78.75h1.84v1.84h-1.84V78.75z M469.58,81.2h1.84v1.84h-1.84V81.2z"/>
	<path d="M474.48,71.41h1.84v1.84h-1.84V71.41z M474.48,81.2h1.84v1.84h-1.84V81.2z M476.93,66.51h1.84v1.84h-1.84V66.51z
		 M476.93,71.41h1.84v1.84h-1.84V71.41z M476.93,73.86h1.84v1.84h-1.84V73.86z M476.93,76.3h1.84v1.84h-1.84V76.3z M476.93,78.75
		h1.84v1.84h-1.84V78.75z M476.93,81.2h1.84v1.84h-1.84V81.2z M479.37,81.2h1.84v1.84h-1.84V81.2z"/>
	<path d="M484.27,71.41h1.84v1.84h-1.84V71.41z M484.27,73.86h1.84v1.84h-1.84V73.86z M484.27,76.3h1.84v1.84h-1.84V76.3z
		 M485.49,78.75h1.84v1.84h-1.84V78.75z M487.94,81.2h1.84v1.84h-1.84V81.2z M490.39,78.75h1.84v1.84h-1.84V78.75z M491.61,71.41
		h1.84v1.84h-1.84V71.41z M491.61,73.86h1.84v1.84h-1.84V73.86z M491.61,76.3h1.84v1.84h-1.84V76.3z"/>
	<path d="M496.51,68.96h1.84v1.84h-1.84V68.96z M496.51,78.75h1.84v1.84h-1.84V78.75z M498.95,71.41h1.84v1.84h-1.84V71.41z
		 M498.95,76.3h1.84v1.84h-1.84V76.3z M501.4,73.86h1.84v1.84h-1.84V73.86z"/>
</g>
<polygon class="st0" points="439.34,49.01 432.34,49.01 432.34,56.01 425.34,56.01 425.34,49.01 418.34,49.01 418.27,14 439.34,14 
	"/>
<g>
	<rect x="446.36" y="24.5" class="st1" width="49" height="7"/>
</g>
<rect x="432.35" y="42.01" width="7" height="7"/>
<rect x="446.35" y="17.5" width="49" height="7"/>
<rect x="446.36" y="31.51" width="49" height="7"/>
<rect x="425.35" y="49.01" width="7" height="7"/>
<rect x="418.35" y="42.01" width="7" height="7"/>
<rect x="411.34" y="14" width="7" height="28.01"/>
<rect x="439.34" y="14" width="7" height="28"/>
<rect x="495.36" y="24.5" width="7" height="7"/>
<rect x="418.26" y="7" width="21.08" height="7"/>
<g>
	<path class="st3" d="M385.09,40.26v-7h-7v-7.01h-7v-7h-7l0.12-7h-7.13v7h-7v7l-7,0.01v7h-7v7h-7v7h63.01v-7H385.09z M357.08,38.51
		v-7l6.99-0.01l0.01,7.01H357.08z"/>
	<rect x="322.08" y="40.26" width="7" height="7"/>
	<rect x="329.08" y="47.26" width="63.01" height="7"/>
	<rect x="392.09" y="40.26" width="7" height="7"/>
	<rect x="385.09" y="33.26" width="7" height="7"/>
	<rect x="378.09" y="26.26" width="7" height="7"/>
	<rect x="371.09" y="19.25" width="7" height="7"/>
	<rect x="364.09" y="12.25" width="7" height="7"/>
	<rect x="357.21" y="5.25" width="7" height="7"/>
	<rect x="350.08" y="12.25" width="7" height="7"/>
	<rect x="343.08" y="19.25" width="7" height="7"/>
	<rect x="336.08" y="26.26" width="7" height="7"/>
	<rect x="329.08" y="33.26" width="7" height="7"/>
	<rect x="357.08" y="24.51" width="7" height="7"/>
	<polygon points="371.08,38.51 371.08,31.51 364.08,31.51 364.08,38.51 357.08,38.51 357.08,31.51 350.08,31.51 350.08,38.51 
		345.71,38.51 345.71,42.01 375.47,42.01 375.47,38.51 	"/>
</g>
</svg>
