<?xml version="1.0" encoding="utf-8"?>
<!-- Generator: Adobe Illustrator 22.1.0, SVG Export Plug-In . SVG Version: 6.00 Build 0)  -->
<svg version="1.1" id="Ebene_1" xmlns="http://www.w3.org/2000/svg" xmlns:xlink="http://www.w3.org/1999/xlink" x="0px" y="0px"
	 viewBox="0 0 297.6 555.6" style="enable-background:new 0 0 297.6 555.6;" xml:space="preserve">
<style type="text/css">
	.st0{fill:#1FAE8B;}
	.st1{fill:#FFFFFF;}
	.st2{fill:#07A6DE;}
	.st3{fill:#FFD104;}
</style>
<path d="M59.5,555.6h19.8v-29.8H59.5V555.6z M0,525.8h19.8V29.8H0V525.8z M59.5,29.8h19.8V0H59.5V29.8z"/>
<polygon class="st0" points="79.4,0 79.4,29.8 19.8,29.8 19.8,525.8 79.4,525.8 79.4,555.6 238.1,555.6 238.1,525.8 297.6,525.8 
	297.6,29.8 238.1,29.8 238.1,0 "/>
<polygon class="st1" points="198.4,69.4 178.6,69.4 178.6,54.6 158.7,54.6 138.9,54.6 138.9,69.4 119.1,69.4 119.1,218.3 
	138.9,218.3 138.9,233.2 158.7,233.2 178.6,233.2 178.6,218.3 198.4,218.3 "/>
<path d="M198.4,218.3h-19.8v14.9h-39.7v-14.9h-19.8V69.4h19.8V54.6h39.7v14.9h19.8V218.3L198.4,218.3z M208.3,228.2V59.5h-19.8V44.6
	H129v14.9h-19.8v168.7H129v14.9h59.5v-14.9H208.3L208.3,228.2z"/>
<rect x="143.9" y="79.4" class="st2" width="29.8" height="119.1"/>
<rect x="143.9" y="129" width="29.8" height="29.8"/>
<rect x="158.7" y="133.9" class="st1" width="9.9" height="9.9"/>
<path d="M64.5,342.3H253v-49.6H64.5V342.3z M253,421.3H64.5v49.6H253V421.3z"/>
<path class="st3" d="M64.5,292.7H253v-14.9H64.5V292.7z M64.5,292.7H49.6v49.6h14.9V292.7z M253,342.3H64.5v14.9H253V342.3z
	 M253,342.3h14.9v-49.6H253V342.3z M64.5,421.3H253v-14.9H64.5V421.3z M64.5,421.3H49.6v49.6h14.9V421.3z M253,470.9H64.5v14.9H253
	V470.9z M267.9,421.3H253v49.6h14.9V421.3z"/>
<path class="st1" d="M74.4,302.6h24.8v-9.9H74.4V302.6z M74.4,342.3h24.8v-9.9H74.4V342.3z M74.4,431.2h24.8v-9.9H74.4V431.2z
	 M74.4,470.9h24.8V461H74.4V470.9z M110.4,302.6h24.8v-9.9h-24.8V302.6z M110.4,342.3h24.8v-9.9h-24.8V342.3z M110.4,431.2h24.8
	v-9.9h-24.8V431.2z M110.4,470.9h24.8V461h-24.8V470.9z M146.3,302.6h24.8v-9.9h-24.8V302.6z M146.3,342.3h24.8v-9.9h-24.8V342.3z
	 M146.3,431.2h24.8v-9.9h-24.8V431.2z M146.3,470.9h24.8V461h-24.8V470.9z M182.3,302.6h24.8v-9.9h-24.8V302.6z M182.3,342.3h24.8
	v-9.9h-24.8V342.3z M182.3,431.2h24.8v-9.9h-24.8V431.2z M182.3,470.9h24.8V461h-24.8V470.9z M218.3,302.6h24.8v-9.9h-24.8V302.6z
	 M218.3,342.3h24.8v-9.9h-24.8V342.3z M218.3,431.2h24.8v-9.9h-24.8V431.2z M243.1,461h-24.8v9.9h24.8V461z"/>
</svg>
