<?xml version="1.0" encoding="utf-8"?>
<!-- Generator: Adobe Illustrator 23.1.1, SVG Export Plug-In . SVG Version: 6.00 Build 0)  -->
<svg version="1.1" xmlns="http://www.w3.org/2000/svg" xmlns:xlink="http://www.w3.org/1999/xlink" x="0px" y="0px"
	 viewBox="0 0 218.3 277.8" style="enable-background:new 0 0 218.3 277.8;" xml:space="preserve">
<style type="text/css">
	.st0{fill:#F3971B;}
	.st1{fill:#FFFFFF;}
</style>
<g id="Ebene_1">
</g>
<g id="Layer_1">
	<g>
		<rect x="99.2" y="39.7" width="19.8" height="19.8"/>
		<rect x="59.5" y="79.4" width="19.8" height="19.8"/>
		<rect x="99.2" y="79.4" width="19.8" height="19.8"/>
		<rect x="138.9" y="79.4" width="19.8" height="19.8"/>
	</g>
	<path class="st0" d="M178.6,138.9h19.8v-19.8h19.8V99.2h-19.8h-19.8V79.4V59.5h-19.8V39.7h-19.8V19.8h-19.8V0H99.2v19.8H79.4v19.8
		H59.5v19.8H39.7v19.8v19.8H19.8H0v19.8h19.8v19.8h19.8v19.8v19.8H19.8v-9.9H0v19.8v19.8h19.8v-9.9h19.8h19.8v19.8v19.8H39.7V258
		v19.8h19.8V258h19.8v-19.8h19.8v-19.8h19.8v19.8h19.8V258h19.8v19.8h19.8V258v-19.8h-19.8v-19.8v-19.8h19.8h19.8v9.9h19.8v-19.8
		v-19.8h-19.8v9.9h-19.8v-19.8V138.9z M99.2,39.7h19.8v19.8H99.2V39.7z M99.2,79.4h19.8v19.8H99.2V79.4z M59.5,79.4h19.8v19.8H59.5
		V79.4z M158.7,99.2h-19.8V79.4h19.8V99.2z"/>
	<polygon class="st1" points="138.9,119.1 138.9,138.9 79.4,138.9 79.4,119.1 59.5,119.1 59.5,158.7 79.4,158.7 138.9,158.7 
		158.7,158.7 158.7,119.1 	"/>
</g>
</svg>
